<svg width="23" height="21" viewBox="0 0 23 21" fill="none" xmlns="http://www.w3.org/2000/svg">
<path d="M19.436 12.5391V15.5391H22.436V17.5391H19.436V20.5391H17.436V17.5391H14.436V15.5391H17.436V12.5391H19.436ZM19.444 0.539062C19.992 0.539062 20.436 0.984063 20.436 1.53206V10.8811C19.7937 10.6542 19.1173 10.5385 18.436 10.5391V2.53906H2.43604L2.43704 16.5391L11.729 7.24606C11.901 7.07354 12.1301 6.96979 12.3731 6.95432C12.6162 6.93886 12.8566 7.01273 13.049 7.16206L13.142 7.24706L16.688 10.7971C15.9127 11.0333 15.1932 11.4242 14.573 11.946C13.9528 12.4679 13.4447 13.1099 13.0793 13.8335C12.7139 14.557 12.4989 15.347 12.4471 16.1559C12.3953 16.9648 12.5079 17.7758 12.778 18.5401L1.42804 18.5391C1.16485 18.5388 0.912532 18.4341 0.726525 18.2479C0.540517 18.0617 0.436035 17.8092 0.436035 17.5461V1.53206C0.437865 1.26944 0.542935 1.01808 0.728548 0.83228C0.914161 0.64648 1.16542 0.541157 1.42804 0.539062H19.444ZM6.43604 4.53906C6.96647 4.53906 7.47518 4.74978 7.85025 5.12485C8.22532 5.49992 8.43604 6.00863 8.43604 6.53906C8.43604 7.0695 8.22532 7.5782 7.85025 7.95328C7.47518 8.32835 6.96647 8.53906 6.43604 8.53906C5.9056 8.53906 5.39689 8.32835 5.02182 7.95328C4.64675 7.5782 4.43604 7.0695 4.43604 6.53906C4.43604 6.00863 4.64675 5.49992 5.02182 5.12485C5.39689 4.74978 5.9056 4.53906 6.43604 4.53906Z" fill="#A3A3A3"/>
</svg>
