<svg width="40" height="40" viewBox="0 0 40 40" fill="none" xmlns="http://www.w3.org/2000/svg">
<path d="M10 8V2C10 1.46957 10.2107 0.960859 10.5858 0.585786C10.9609 0.210714 11.4696 0 12 0H28C28.5304 0 29.0391 0.210714 29.4142 0.585786C29.7893 0.960859 30 1.46957 30 2V8H40V12H36V38C36 38.5304 35.7893 39.0391 35.4142 39.4142C35.0391 39.7893 34.5304 40 34 40H6C5.46957 40 4.96086 39.7893 4.58579 39.4142C4.21071 39.0391 4 38.5304 4 38V12H0V8H10ZM22.828 24L26.364 20.464L23.536 17.636L20 21.172L16.464 17.636L13.636 20.464L17.172 24L13.636 27.536L16.464 30.364L20 26.828L23.536 30.364L26.364 27.536L22.828 24ZM14 4V8H26V4H14Z" fill="#F93232"/>
</svg>
