<svg width="23" height="17" viewBox="0 0 23 17" fill="none" xmlns="http://www.w3.org/2000/svg">
<path d="M10.6821 11.5391H4.19013L2.19013 16.5391H0.0361328L6.43613 0.539062H8.43613L14.8361 16.5391H12.6821L10.6821 11.5391ZM9.88213 9.53906L7.43613 3.42406L4.99013 9.53906H9.88213ZM20.4361 9.07406V8.53906H22.4361V16.5391H20.4361V16.0041C19.828 16.3548 19.1383 16.5393 18.4363 16.5391C17.7343 16.5388 17.0448 16.3538 16.4369 16.0027C15.829 15.6516 15.3243 15.1467 14.9734 14.5387C14.6224 13.9307 14.4377 13.2411 14.4377 12.5391C14.4377 11.8371 14.6224 11.1474 14.9734 10.5395C15.3243 9.93147 15.829 9.42654 16.4369 9.07541C17.0448 8.72428 17.7343 8.5393 18.4363 8.53906C19.1383 8.53883 19.828 8.72334 20.4361 9.07406ZM18.4361 14.5391C18.9666 14.5391 19.4753 14.3283 19.8503 13.9533C20.2254 13.5782 20.4361 13.0695 20.4361 12.5391C20.4361 12.0086 20.2254 11.4999 19.8503 11.1248C19.4753 10.7498 18.9666 10.5391 18.4361 10.5391C17.9057 10.5391 17.397 10.7498 17.0219 11.1248C16.6468 11.4999 16.4361 12.0086 16.4361 12.5391C16.4361 13.0695 16.6468 13.5782 17.0219 13.9533C17.397 14.3283 17.9057 14.5391 18.4361 14.5391Z" fill="#424F65"/>
</svg>
